<svg xmlns="http://www.w3.org/2000/svg" viewBox="0 0 268 268" width="268" height="268"><defs><linearGradient id="bg" x1="0" y1="1" x2="1" y2="0"><stop offset="0" stop-color="#B06A6E"/><stop offset="1" stop-color="#2E1620"/></linearGradient><linearGradient id="glass" x1="0" y1="0" x2="0" y2="1"><stop offset="0" stop-color="#FFFFFF" stop-opacity="0.12"/><stop offset="1" stop-color="#1E1C18" stop-opacity="0.34"/></linearGradient></defs><rect width="268" height="268" fill="url(#bg)"/><rect x="30" y="30" width="208" height="208" rx="36" fill="url(#glass)" stroke="#FFFFFF" stroke-opacity="0.55" stroke-width="3"/><path d="M46,134 A88 88 0 0 1 134,44" fill="none" stroke="#FFFFFF" stroke-opacity="0.30" stroke-width="3"/><circle cx="134" cy="134" r="94" fill="none" stroke="#F0E2E2" stroke-opacity="0.5" stroke-width="2.5"/><polygon points="134,35.1 154.4,64 134,92.9 113.6,64" fill="#F0E2E2" fill-opacity="0.84"/><g stroke="#F0E2E2" stroke-width="6.5" fill="none" stroke-linecap="round"><path d="M180.2 115.3 A11.9 6.8 0 0 1 204 115.3 A11.9 6.8 0 0 1 227.8 115.3" /><path d="M200.6 123.8 A11.9 6.8 0 0 1 224.4 123.8" /><path d="M180.2 132.3 A11.9 6.8 0 0 1 204 132.3 A11.9 6.8 0 0 1 227.8 132.3" /><path d="M200.6 140.8 A11.9 6.8 0 0 1 224.4 140.8" /><path d="M180.2 149.3 A11.9 6.8 0 0 1 204 149.3 A11.9 6.8 0 0 1 227.8 149.3" /><path d="M200.6 157.8 A11.9 6.8 0 0 1 224.4 157.8" /></g><g stroke="#F0E2E2" stroke-width="6.5" stroke-linecap="round"><line x1="134" y1="232.9" x2="134" y2="175.1"/><line x1="134" y1="200.6" x2="117" y2="183.6"/><line x1="134" y1="200.6" x2="151" y2="183.6"/><line x1="117" y1="183.6" x2="110.88" y2="188.7"/><line x1="151" y1="183.6" x2="157.12" y2="188.7"/></g><path d="M64 101.7 C40.2 132.3,64 151, 87.8 132.3 C64 166.3, 40.2 132.3, 64 101.7 Z" fill="#F0E2E2" fill-opacity="0.84"/><circle cx="134" cy="134" r="5" fill="#F0E2E2" fill-opacity="0.84"/></svg>
