<svg xmlns="http://www.w3.org/2000/svg" viewBox="0 0 268 268" width="268" height="268"><defs><linearGradient id="bg" x1="0" y1="1" x2="1" y2="0"><stop offset="0" stop-color="#C9A45C"/><stop offset="1" stop-color="#1A2330"/></linearGradient><linearGradient id="glass" x1="0" y1="0" x2="0" y2="1"><stop offset="0" stop-color="#FFFFFF" stop-opacity="0.12"/><stop offset="1" stop-color="#1E1C18" stop-opacity="0.34"/></linearGradient></defs><rect width="268" height="268" fill="url(#bg)"/><rect x="30" y="30" width="208" height="208" rx="36" fill="url(#glass)" stroke="#FFFFFF" stroke-opacity="0.55" stroke-width="3"/><path d="M46,134 A88 88 0 0 1 134,44" fill="none" stroke="#FFFFFF" stroke-opacity="0.30" stroke-width="3"/><circle cx="134" cy="134" r="94" fill="none" stroke="#EFE9DC" stroke-opacity="0.5" stroke-width="2.5"/><g stroke="#EFE9DC" stroke-width="6.5" fill="none"><path d="M105.1 64 A14.28 14.28 0 0 1 134 35.1 A14.28 14.28 0 0 1 162.9 64"/><path d="M120.4 82.7 A12.58 12.58 0 0 1 145.9 82.7"/></g><g stroke="#EFE9DC" stroke-width="6.5" fill="none" stroke-linecap="round"><path d="M110.2 185.3 A11.9 6.8 0 0 1 134 185.3 A11.9 6.8 0 0 1 157.8 185.3" /><path d="M130.6 193.8 A11.9 6.8 0 0 1 154.4 193.8" /><path d="M110.2 202.3 A11.9 6.8 0 0 1 134 202.3 A11.9 6.8 0 0 1 157.8 202.3" /><path d="M130.6 210.8 A11.9 6.8 0 0 1 154.4 210.8" /><path d="M110.2 219.3 A11.9 6.8 0 0 1 134 219.3 A11.9 6.8 0 0 1 157.8 219.3" /><path d="M130.6 227.8 A11.9 6.8 0 0 1 154.4 227.8" /></g><circle cx="134" cy="134" r="5" fill="#EFE9DC" fill-opacity="0.84"/></svg>
