<svg xmlns="http://www.w3.org/2000/svg" viewBox="0 0 268 268" width="268" height="268"><defs><linearGradient id="bg" x1="0" y1="1" x2="1" y2="0"><stop offset="0" stop-color="#8E63F2"/><stop offset="1" stop-color="#2E1A5E"/></linearGradient><linearGradient id="glass" x1="0" y1="0" x2="0" y2="1"><stop offset="0" stop-color="#FFFFFF" stop-opacity="0.12"/><stop offset="1" stop-color="#1E1C18" stop-opacity="0.34"/></linearGradient></defs><rect width="268" height="268" fill="url(#bg)"/><rect x="30" y="30" width="208" height="208" rx="36" fill="url(#glass)" stroke="#FFFFFF" stroke-opacity="0.55" stroke-width="3"/><path d="M46,134 A88 88 0 0 1 134,44" fill="none" stroke="#FFFFFF" stroke-opacity="0.30" stroke-width="3"/><circle cx="134" cy="134" r="94" fill="none" stroke="#EDE6FF" stroke-opacity="0.5" stroke-width="2.5"/><g stroke="#EDE6FF" stroke-width="6.5" stroke-linecap="round"><line x1="134" y1="92.9" x2="134" y2="35.1"/><line x1="134" y1="60.6" x2="117" y2="43.6"/><line x1="134" y1="60.6" x2="151" y2="43.6"/><line x1="117" y1="43.6" x2="110.88" y2="48.7"/><line x1="151" y1="43.6" x2="157.12" y2="48.7"/></g><path d="M134 171.7 C110.2 202.3,134 221, 157.8 202.3 C134 236.3, 110.2 202.3, 134 171.7 Z" fill="#EDE6FF" fill-opacity="0.84"/><circle cx="134" cy="134" r="5" fill="#EDE6FF" fill-opacity="0.84"/></svg>
